<?xml version="1.0" standalone="no"?>
<!DOCTYPE svg PUBLIC "-//W3C//DTD SVG 20010904//EN"
 "http://www.w3.org/TR/2001/REC-SVG-20010904/DTD/svg10.dtd">
<svg version="1.0" xmlns="http://www.w3.org/2000/svg"
 width="512.000000pt" height="512.000000pt" viewBox="0 0 512.000000 512.000000"
 preserveAspectRatio="xMidYMid meet">

<g transform="translate(0.000000,512.000000) scale(0.100000,-0.100000)"
fill="#000000" stroke="none">
<path d="M415 4786 c-41 -18 -83 -69 -90 -109 -3 -18 -4 -694 -3 -1504 3
-1468 3 -1472 24 -1499 11 -15 33 -37 48 -48 27 -20 41 -21 491 -24 l463 -3
27 -82 c84 -257 252 -518 458 -713 229 -217 527 -375 832 -443 453 -100 939
-10 1335 247 441 286 734 767 790 1294 35 336 -23 648 -180 963 -179 358 -457
630 -825 806 -55 26 -137 60 -182 74 l-82 27 -3 463 c-3 450 -4 464 -24 491
-11 15 -33 37 -48 48 -27 21 -30 21 -1514 23 -1221 2 -1492 0 -1517 -11z
m2837 -961 c62 -8 147 -23 188 -33 l75 -17 0 -1037 c0 -1031 0 -1037 -21
-1064 -11 -15 -33 -37 -48 -48 -27 -21 -33 -21 -1064 -21 l-1037 0 -17 75
c-110 466 -24 954 240 1360 362 558 1034 872 1684 785z"/>
</g>
</svg>
